# xmcd CD database file
#
# Track frame offsets:
#	150
#	15760
#	33395
#	51471
#	64701
#	90209
#	105325
#	121474
#	141044
#	154477
#	172847
#	189692
#	203876
#	217366
#	235939
#	253571
#	269661
#	283681
#
# Disc length: 4005 seconds
#
# Revision: 1
# Processed by: cddbd v1.5.1PL0 Copyright (c) Steve Scherf et al.
# Submitted via: CDex 1.51
#
DISCID=040fa312
DTITLE=Various Artist - Promo Only Canada April 2004 Country Radio
DYEAR=2004
DGENRE=Country
TTITLE0=Emerson Drive - Last One Standing (Radio Edit)
TTITLE1=Lonestar - Let's Be Us Again
TTITLE2=Jimmy Rankin - California Dreamer
TTITLE3=Lee Ann Womack - The Wrong Girl
TTITLE4=Wynonna - I Want To Know What Love Is
TTITLE5=Shania Twain - It Only Hurts When I'm Breathing
TTITLE6=Vince Gill - In These Last Few Days
TTITLE7=Cross Canadian Ragweed - Sick And Tired
TTITLE8=Donovan Chapman - Hey Hollywood
TTITLE9=Julie Roberts - Break Down Here
TTITLE10=Aaron Pritchett - My Way
TTITLE11=Hank Williams Jr. - Why Can't We All Just Get A Long Neck?
TTITLE12=Montgomery Gentry - If You Ever Stop Loving Me
TTITLE13=Sherrie Austin - Drivin' Into The Sun
TTITLE14=Chris Cummings - Lucy Got Lucky
TTITLE15=Gretchen Wilson - Redneck Woman
TTITLE16=Katy Kiefer - My Song
TTITLE17=Thom Ellis - Hasta La Vista
EXTD=YEAR: 2004
EXTT0=
EXTT1=
EXTT2=
EXTT3=
EXTT4=
EXTT5=
EXTT6=
EXTT7=
EXTT8=
EXTT9=
EXTT10=
EXTT11=
EXTT12=
EXTT13=
EXTT14=
EXTT15=
EXTT16=
EXTT17=
PLAYORDER=
